<svg width="42" height="42" viewBox="0 0 42 42" fill="none" xmlns="http://www.w3.org/2000/svg">
<rect width="42" height="42" rx="8" fill="#B1C5FF"/>
<path d="M13.5 21V22.5H28.5V21C28.5 18.5181 30.5092 16.5055 32.9898 16.5C32.977 16.008 32.9485 15.6507 32.8846 15.3295C32.4112 12.9493 30.5506 11.0887 28.1706 10.6153C27.591 10.5 26.8939 10.5 25.5 10.5H16.5C15.106 10.5 14.409 10.5 13.8295 10.6153C11.4493 11.0887 9.58873 12.9493 9.11529 15.3295C9.05139 15.6507 9.0229 16.008 9.01021 16.5C11.4908 16.5055 13.5 18.5181 13.5 21Z" fill="#2F4578"/>
<path d="M30.6666 30H11.3333C10.9177 30 10.5132 29.9524 10.125 29.8626V31.5C10.125 32.1213 9.62132 32.625 9 32.625C8.37868 32.625 7.875 32.1213 7.875 31.5V28.727C6.72762 27.7487 6 26.2926 6 24.6666V21C6 19.3431 7.34314 18 9 18C10.6569 18 12 19.3431 12 21V22.8C12 23.4627 12.5373 24 13.2 24H28.8C29.4627 24 30 23.4627 30 22.8V21C30 19.3431 31.3431 18 33 18C34.6569 18 36 19.3431 36 21V24.6666C36 26.2926 35.2724 27.7487 34.125 28.727V31.5C34.125 32.1213 33.6213 32.625 33 32.625C32.3787 32.625 31.875 32.1213 31.875 31.5V29.8626C31.4868 29.9524 31.0823 30 30.6666 30Z" fill="#2F4578"/>
</svg>
