<svg width="42" height="42" viewBox="0 0 42 42" fill="none" xmlns="http://www.w3.org/2000/svg">
<rect width="42" height="42" rx="8" fill="#B1C5FF"/>
<path d="M13.6029 9.25C13 10.2942 13 11.6962 13 14.5V19.0403C13.6454 18.9999 14.371 19 15.1522 19H25.8472C26.6287 19 27.3544 18.9999 28 19.0403V14.5C28 11.6962 28 10.2942 27.3971 9.25C27.0022 8.56591 26.4341 7.99785 25.75 7.60288C24.7057 7 23.3038 7 20.5 7C17.6962 7 16.2942 7 15.25 7.60288C14.5659 7.99785 13.9978 8.56591 13.6029 9.25Z" fill="#2F4578"/>
<path d="M11.875 26.4871C11.1219 26.4566 10.6661 26.3548 10.354 26.0143C9.90889 25.5285 9.96688 24.8527 10.0829 23.5012C10.1666 22.5254 10.3559 21.8687 10.7841 21.3787C11.5517 20.5 12.7872 20.5 15.2582 20.5H25.7417C28.2127 20.5 29.4482 20.5 30.216 21.3787C30.6441 21.8687 30.8333 22.5254 30.9172 23.5012C31.0331 24.8527 31.091 25.5285 30.646 26.0143C30.3338 26.3548 29.878 26.4566 29.125 26.4871V33.9998C29.125 34.6213 28.6213 35.1248 28 35.1248C27.3787 35.1248 26.875 34.6213 26.875 33.9998V26.5H14.125V33.9998C14.125 34.6213 13.6213 35.1248 13 35.1248C12.3787 35.1248 11.875 34.6213 11.875 33.9998V26.4871Z" fill="#2F4578"/>
</svg>
