<svg width="42" height="42" viewBox="0 0 42 42" fill="none" xmlns="http://www.w3.org/2000/svg">
<rect width="42" height="42" rx="8" fill="#B1C5FF"/>
<path d="M28.25 33.6806H13.75C12.7071 33.6806 12.0542 33.6806 11.55 33.6223V35.4166C11.55 35.9919 11.0799 36.4583 10.5 36.4583C9.92011 36.4583 9.45 35.9919 9.45 35.4166V32.8248C8.29409 32.0533 7.4461 30.8192 7.13163 29.3613C7 28.7511 7 28.0133 7 26.5377V20.1329C7 18.4104 8.31958 17.014 9.94736 17.014C11.5752 17.014 12.8947 18.4104 12.8947 20.1329V24.4213C12.8947 25.7308 12.8947 26.3855 13.3048 26.7923C13.7148 27.1991 14.3748 27.1991 15.6947 27.1991H26.3053C27.6252 27.1991 28.2852 27.1991 28.6952 26.7923C29.1053 26.3855 29.1053 25.7308 29.1053 24.4213V20.1329C29.1053 18.4104 30.4248 17.014 32.0526 17.014C33.6804 17.014 35 18.4104 35 20.1329V26.5377C35 28.0133 35 28.7511 34.8684 29.3613C34.554 30.8192 33.7058 32.0533 32.55 32.8248V35.4167C32.55 35.992 32.0799 36.4584 31.5 36.4584C30.9201 36.4584 30.45 35.992 30.45 35.4167V33.6223C29.9459 33.6806 29.2929 33.6806 28.25 33.6806Z" fill="#2F4578"/>
<path d="M12.6 16.5582V15.8388C12.6 12.6435 12.6 11.0459 13.2752 9.85584C13.7176 9.07626 14.3538 8.42889 15.12 7.9788C16.2895 7.29175 17.8597 7.29175 21 7.29175C24.1403 7.29175 25.7104 7.29175 26.88 7.9788C27.6462 8.42889 28.2824 9.07626 28.7248 9.85584C29.4 11.0459 29.4 12.6435 29.4 15.8387V16.5583C28.3555 17.3971 27.7053 18.7127 27.7053 20.1329V24.4213C27.7053 25.0761 27.7053 25.4034 27.5003 25.6069C27.2952 25.8102 26.9653 25.8102 26.3053 25.8102H15.6948C15.0348 25.8102 14.7048 25.8102 14.4998 25.6069C14.2948 25.4034 14.2948 25.0761 14.2948 24.4213V20.1329C14.2948 18.7126 13.6446 17.3971 12.6 16.5582Z" fill="#2F4578"/>
</svg>
