<svg width="42" height="42" viewBox="0 0 42 42" fill="none" xmlns="http://www.w3.org/2000/svg">
<rect width="42" height="42" rx="8" fill="#B1C5FF"/>
<path d="M7 11.9092C7 12.4111 7.40868 12.8183 7.91306 12.8183L8.82612 12.8183L8.82612 14.6365L7.91306 14.6365C7.40868 14.6365 7 15.0437 7 15.5456C7 16.0474 7.40868 16.4547 7.91306 16.4547L8.82612 16.4547L8.82612 18.2728L7.91306 18.2728C7.40868 18.2728 7 18.6801 7 19.1819C7 19.6838 7.40868 20.091 7.91306 20.091L8.82612 20.091L8.82612 21.9092L7.91306 21.9092C7.40868 21.9092 7 22.3164 7 22.8182C7 23.3201 7.40868 23.7273 7.91306 23.7273L8.82612 23.7273L8.82612 25.5455L7.91306 25.5455C7.40868 25.5455 7 25.9527 7 26.4546C7 26.9565 7.40868 27.3637 7.91306 27.3637L8.82612 27.3637L8.82612 29.1818L7.91306 29.1818C7.40868 29.1818 7 29.589 7 30.0909C7 30.5928 7.40868 31 7.91306 31L34.0869 31C34.5913 31 35 30.5928 35 30.0909C35 29.589 34.5913 29.1818 34.0869 29.1818L33.1739 29.1818L33.1739 27.3636L34.0869 27.3636C34.5913 27.3636 35 26.9564 35 26.4545C35 25.9527 34.5913 25.5454 34.0869 25.5454L33.1739 25.5454L33.1739 23.7273L34.0869 23.7273C34.5913 23.7273 35 23.32 35 22.8182C35 22.3163 34.5913 21.9091 34.0869 21.9091L33.1739 21.9091L33.1739 20.0909L34.0869 20.0909C34.5913 20.0909 35 19.6837 35 19.1818C35 18.68 34.5913 18.2727 34.0869 18.2727L33.1739 18.2727L33.1739 16.4546L34.0869 16.4546C34.5913 16.4546 35 16.0473 35 15.5455C35 15.0436 34.5913 14.6364 34.0869 14.6364L33.1739 14.6364L33.1739 12.8182L34.0869 12.8182C34.5913 12.8182 35 12.411 35 11.9091C35 11.4072 34.5913 11 34.0869 11L7.91306 11C7.40868 11.0002 7 11.4073 7 11.9092ZM25.0721 15.5456C25.4884 15.5456 25.8519 15.8258 25.9559 16.2274C26.2053 17.1877 26.9593 17.9384 27.9238 18.1867C28.3271 18.2903 28.6086 18.6522 28.6086 19.0668L28.6086 22.9333C28.6086 23.3479 28.3271 23.7099 27.9238 23.8134C26.9593 24.0617 26.2053 24.8124 25.9559 25.7728C25.8519 26.1743 25.4884 26.4546 25.0721 26.4546L16.9278 26.4546C16.5115 26.4546 16.1479 26.1743 16.044 25.7728C15.7946 24.8125 15.0406 24.0618 14.0761 23.8134C13.6728 23.7099 13.3913 23.3479 13.3913 22.9333L13.3913 19.0668C13.3913 18.6522 13.6728 18.2903 14.0761 18.1867C15.0406 17.9384 15.7946 17.1877 16.044 16.2274C16.148 15.8258 16.5115 15.5456 16.9278 15.5456L25.0721 15.5456Z" fill="#2F4578"/>
</svg>
